<?xml version="1.0" encoding="UTF-8"?>
<svg version="1.1" xmlns="http://www.w3.org/2000/svg" width="100" height="100">
<path d="M0 0 C0.825 -0.020625 1.65 -0.04125 2.5 -0.0625 C7.92781985 -0.09696235 11.69847185 0.74829363 16.625 3.25 C18.08486328 3.90548828 18.08486328 3.90548828 19.57421875 4.57421875 C26.15773064 7.85188729 29.1731714 10.24477543 31.625 17.25 C31.625 17.91 31.625 18.57 31.625 19.25 C33.605 19.91 35.585 20.57 37.625 21.25 C38.01353969 41.03364417 37.54648683 58.43564095 30.625 77.25 C30.32078125 78.08144531 30.0165625 78.91289063 29.703125 79.76953125 C29.02309828 81.60111266 28.32635425 83.42647895 27.625 85.25 C26.965 85.25 26.305 85.25 25.625 85.25 C25.40972656 86.02214844 25.19445312 86.79429688 24.97265625 87.58984375 C23.20521542 91.07861826 21.68799679 91.4836142 18.0625 92.8125 C14.20111584 94.26744738 10.499768 95.77500864 6.8125 97.625 C-0.65184419 100.88482946 -7.03451798 97.40245755 -14.19140625 94.6015625 C-15.76728516 93.93253906 -15.76728516 93.93253906 -17.375 93.25 C-18.42429687 92.816875 -19.47359375 92.38375 -20.5546875 91.9375 C-28.98329479 86.89434439 -31.99534457 73.49730979 -34.375 64.4296875 C-37.48163125 51.79030073 -40.45162097 34.05864243 -36.375 21.25 C-35.611875 20.8375 -34.84875 20.425 -34.0625 20 C-30.97427045 17.98905983 -30.88432676 17.28460213 -29.75 13.9375 C-27.61703207 8.48065704 -23.96634725 6.85531218 -18.8359375 4.44140625 C-16.27292798 3.36681112 -16.27292798 3.36681112 -14.375 1.25 C-9.71030784 -0.14404593 -4.82749983 0.02989164 0 0 Z " fill="#3B92C3" transform="translate(49.375,0.75)"/>
<path d="M0 0 C7.59 0 15.18 0 23 0 C23 0.33 23 0.66 23 1 C18.38 1.33 13.76 1.66 9 2 C9.66 4.31 10.32 6.62 11 9 C9.96359375 9.31453125 8.9271875 9.6290625 7.859375 9.953125 C6.48937869 10.38476767 5.11959814 10.8170956 3.75 11.25 C3.06808594 11.45496094 2.38617188 11.65992188 1.68359375 11.87109375 C-2.47325315 13.20289907 -5.29929607 14.51971143 -8 18 C-8 18.66 -8 19.32 -8 20 C-8.99 20.33 -9.98 20.66 -11 21 C-11.33 21.66 -11.66 22.32 -12 23 C-11.34 23 -10.68 23 -10 23 C-10 24.65 -10 26.3 -10 28 C-8.68 27.01 -7.36 26.02 -6 25 C-6.33 24.01 -6.66 23.02 -7 22 C-6.01 22 -5.02 22 -4 22 C-4.33 20.02 -4.66 18.04 -5 16 C-3.68 16 -2.36 16 -1 16 C-1.33 17.32 -1.66 18.64 -2 20 C-1.32453125 19.7834375 -0.6490625 19.566875 0.046875 19.34375 C0.93890625 19.0653125 1.8309375 18.786875 2.75 18.5 C3.63171875 18.2215625 4.5134375 17.943125 5.421875 17.65625 C8 17 8 17 12 17 C12.38922918 18.28745036 12.76098036 19.58019597 13.125 20.875 C13.33382812 21.59429688 13.54265625 22.31359375 13.7578125 23.0546875 C13.83773437 23.69664063 13.91765625 24.33859375 14 25 C11.04816899 27.95183101 8.04488053 28.08663988 4 29 C4 28.01 4 27.02 4 26 C-1.30722819 29.03329528 -1.30722819 29.03329528 -3.9375 34.3125 C-3.958125 35.199375 -3.97875 36.08625 -4 37 C-4.33 35.68 -4.66 34.36 -5 33 C-5.66 33 -6.32 33 -7 33 C-7 38.94 -7 44.88 -7 51 C-6.01 50.34 -5.02 49.68 -4 49 C-3.80664062 49.74765625 -3.61328125 50.4953125 -3.4140625 51.265625 C-3.15367188 52.25046875 -2.89328125 53.2353125 -2.625 54.25 C-2.36976562 55.22453125 -2.11453125 56.1990625 -1.8515625 57.203125 C-1.10401491 59.65837303 -0.22876183 61.75617405 1 64 C3.31 64 5.62 64 8 64 C8.33 63.34 8.66 62.68 9 62 C12.3 62.66 15.6 63.32 19 64 C19 53.44 19 42.88 19 32 C21 36 21 36 22 39 C21.505 39.99 21.505 39.99 21 41 C20.84777027 42.66565749 20.75082785 44.33656496 20.68359375 46.0078125 C20.62075195 47.48701172 20.62075195 47.48701172 20.55664062 48.99609375 C20.51732422 50.02863281 20.47800781 51.06117187 20.4375 52.125 C20.37272461 53.68541016 20.37272461 53.68541016 20.30664062 55.27734375 C20.2003712 57.85142528 20.09833417 60.42560508 20 63 C22.97 63.33 25.94 63.66 29 64 C29 63.34 29 62.68 29 62 C29.99 62 30.98 62 32 62 C32.33 60.68 32.66 59.36 33 58 C33.66 58 34.32 58 35 58 C34.67 56.35 34.34 54.7 34 53 C34.66 52.67 35.32 52.34 36 52 C36.66 52.66 37.32 53.32 38 54 C38.66 53.67 39.32 53.34 40 53 C40 53.66 40 54.32 40 55 C41.32 54.34 42.64 53.68 44 53 C43.6875 55.875 43.6875 55.875 43 59 C41.515 59.99 41.515 59.99 40 61 C37.3125 60.125 37.3125 60.125 35 59 C35 59.66 35 60.32 35 61 C35.99 61 36.98 61 38 61 C38 61.66 38 62.32 38 63 C40.64 63.33 43.28 63.66 46 64 C46.66 60.7 47.32 57.4 48 54 C49.485 54.99 49.485 54.99 51 56 C50.24266839 65.84531095 46.51862653 74.85157103 43 84 C42.34 84 41.68 84 41 84 C40.78472656 84.77214844 40.56945312 85.54429688 40.34765625 86.33984375 C38.58021542 89.82861826 37.06299679 90.2336142 33.4375 91.5625 C29.57611584 93.01744738 25.874768 94.52500864 22.1875 96.375 C14.72315581 99.63482946 8.34048202 96.15245755 1.18359375 93.3515625 C-0.39228516 92.68253906 -0.39228516 92.68253906 -2 92 C-3.04929687 91.566875 -4.09859375 91.13375 -5.1796875 90.6875 C-13.60829479 85.64434439 -16.62034457 72.24730979 -19 63.1796875 C-22.10663125 50.54030073 -25.07662097 32.80864243 -21 20 C-20.236875 19.5875 -19.47375 19.175 -18.6875 18.75 C-15.59927045 16.73905983 -15.50932676 16.03460213 -14.375 12.6875 C-12.23875613 7.19940906 -8.52589439 5.59150852 -3.36328125 3.19140625 C-0.86448523 2.22676754 -0.86448523 2.22676754 0 0 Z " fill="#73ABC9" transform="translate(34,2)"/>
<path d="M0 0 C2 4 2 4 3 7 C2.67 7.66 2.34 8.32 2 9 C1.84777027 10.66565749 1.75082785 12.33656496 1.68359375 14.0078125 C1.62075195 15.48701172 1.62075195 15.48701172 1.55664062 16.99609375 C1.51732422 18.02863281 1.47800781 19.06117187 1.4375 20.125 C1.37272461 21.68541016 1.37272461 21.68541016 1.30664062 23.27734375 C1.2003712 25.85142528 1.09833417 28.42560508 1 31 C3.97 31.33 6.94 31.66 10 32 C10 31.34 10 30.68 10 30 C10.99 30 11.98 30 13 30 C13.33 28.68 13.66 27.36 14 26 C14.66 26 15.32 26 16 26 C15.67 24.35 15.34 22.7 15 21 C15.66 20.67 16.32 20.34 17 20 C17.66 20.66 18.32 21.32 19 22 C19.66 21.67 20.32 21.34 21 21 C21 21.66 21 22.32 21 23 C22.32 22.34 23.64 21.68 25 21 C24.6875 23.875 24.6875 23.875 24 27 C23.01 27.66 22.02 28.32 21 29 C18.3125 28.125 18.3125 28.125 16 27 C16 27.66 16 28.32 16 29 C16.99 29 17.98 29 19 29 C19 29.66 19 30.32 19 31 C21.64 31.33 24.28 31.66 27 32 C26.40772295 34.10754422 25.80073662 36.21095876 25.1875 38.3125 C24.85105469 39.48425781 24.51460937 40.65601563 24.16796875 41.86328125 C22.45165427 46.47264757 22.45165427 46.47264757 20 48 C17.5390625 48.0390625 17.5390625 48.0390625 14.625 47.625 C10.05578718 47.1056457 5.89069231 47.05885809 1.3125 47.5 C-3.15740018 47.91839113 -7.09783638 47.90424862 -11.5234375 47.2578125 C-16.98553837 46.68920263 -22.51494045 46.92977875 -28 47 C-30.81532819 41.95859836 -32.5188509 37.77378925 -33 32 C-32.01 32 -31.02 32 -30 32 C-29.67 31.34 -29.34 30.68 -29 30 C-28.01 30.33 -27.02 30.66 -26 31 C-26.33 30.34 -26.66 29.68 -27 29 C-27.99 28.67 -28.98 28.34 -30 28 C-30.33 26.35 -30.66 24.7 -31 23 C-30.34 23 -29.68 23 -29 23 C-29.5259375 22.13375 -29.5259375 22.13375 -30.0625 21.25 C-31.17253823 18.58590824 -30.8645099 17.67998068 -30 15 C-30 14.01 -30 13.02 -30 12 C-30 10.68 -30 9.36 -30 8 C-29.34 8 -28.68 8 -28 8 C-25.32072659 12.01891012 -25.84398752 14.24161923 -26 19 C-25.01 18.34 -24.02 17.68 -23 17 C-22.80664062 17.74765625 -22.61328125 18.4953125 -22.4140625 19.265625 C-22.15367188 20.25046875 -21.89328125 21.2353125 -21.625 22.25 C-21.36976562 23.22453125 -21.11453125 24.1990625 -20.8515625 25.203125 C-20.10401491 27.65837303 -19.22876183 29.75617405 -18 32 C-15.69 32 -13.38 32 -11 32 C-10.67 31.34 -10.34 30.68 -10 30 C-6.7 30.66 -3.4 31.32 0 32 C0 21.44 0 10.88 0 0 Z " fill="#136937" transform="translate(53,34)"/>
<path d="M0 0 C3.02138567 -0.08149592 6.04053905 -0.14073421 9.0625 -0.1875 C9.91005859 -0.21263672 10.75761719 -0.23777344 11.63085938 -0.26367188 C17.16427021 -0.32776544 20.97991322 0.42932755 26 3 C27.45986328 3.65548828 27.45986328 3.65548828 28.94921875 4.32421875 C35.53273064 7.60188729 38.5481714 9.99477543 41 17 C41 17.66 41 18.32 41 19 C42.98 19.66 44.96 20.32 47 21 C47.02489435 25.00186193 47.04295127 29.00369328 47.05493164 33.00561523 C47.05993113 34.36434719 47.06673291 35.72307385 47.07543945 37.08178711 C47.08769842 39.04538585 47.09273487 41.00902541 47.09765625 42.97265625 C47.10289307 44.15093994 47.10812988 45.32922363 47.11352539 46.54321289 C46.99692685 50.09357576 46.5655059 53.49542884 46 57 C42.66308435 53.47449281 42.64659927 50.8008574 42.70703125 46.046875 C42.71127609 45.38665344 42.71552094 44.72643188 42.71989441 44.04620361 C42.73662565 41.94704609 42.77426449 39.84886504 42.8125 37.75 C42.82755416 36.32293058 42.84124129 34.89584604 42.85351562 33.46875 C42.88650999 29.97885183 42.93825257 26.4895213 43 23 C41.68 22.67 40.36 22.34 39 22 C39 22.66 39 23.32 39 24 C38.01 24 37.02 24 36 24 C36.495 26.97 36.495 26.97 37 30 C35.51478323 29.24088921 34.03696575 28.46728766 32.5625 27.6875 C31.73878906 27.25824219 30.91507813 26.82898438 30.06640625 26.38671875 C28 25 28 25 27 22 C23.98359945 20.74359742 23.98359945 20.74359742 20.4375 19.8125 C19.23996094 19.46832031 18.04242188 19.12414062 16.80859375 18.76953125 C15.88175781 18.51558594 14.95492187 18.26164062 14 18 C13.34 21.63 12.68 25.26 12 29 C10.35 29 8.7 29 7 29 C6.67 25.37 6.34 21.74 6 18 C4.246875 18.495 2.49375 18.99 0.6875 19.5 C-2.38516529 20.36757608 -4.7997785 21 -8 21 C-8 19.68 -8 18.36 -8 17 C-8.66 17 -9.32 17 -10 17 C-10 18.98 -10 20.96 -10 23 C-10.99 23 -11.98 23 -13 23 C-13 23.66 -13 24.32 -13 25 C-12.34 25.33 -11.68 25.66 -11 26 C-12.98 27.32 -14.96 28.64 -17 30 C-16.67 28.02 -16.34 26.04 -16 24 C-16.66 24 -17.32 24 -18 24 C-17.505 22.515 -17.505 22.515 -17 21 C-16.01 21 -15.02 21 -14 21 C-14.33 20.01 -14.66 19.02 -15 18 C-9.15263902 13.21579556 -3.2098431 11.11914929 4 9 C3.34 7.02 2.68 5.04 2 3 C2.33 2.67 2.66 2.34 3 2 C2.01 1.34 1.02 0.68 0 0 Z " fill="#8DBCD3" transform="translate(40,1)"/>
<path d="M0 0 C6.93 0 13.86 0 21 0 C21 0.33 21 0.66 21 1 C16.38 1.33 11.76 1.66 7 2 C7.66 4.31 8.32 6.62 9 9 C7.96359375 9.31453125 6.9271875 9.6290625 5.859375 9.953125 C4.48937869 10.38476767 3.11959814 10.8170956 1.75 11.25 C1.06808594 11.45496094 0.38617188 11.65992188 -0.31640625 11.87109375 C-4.47325315 13.20289907 -7.29929607 14.51971143 -10 18 C-10 18.66 -10 19.32 -10 20 C-10.99 20.33 -11.98 20.66 -13 21 C-13.33 21.66 -13.66 22.32 -14 23 C-13.34 23 -12.68 23 -12 23 C-12 24.65 -12 26.3 -12 28 C-10.68 27.01 -9.36 26.02 -8 25 C-8.33 24.01 -8.66 23.02 -9 22 C-8.01 22 -7.02 22 -6 22 C-6.33 20.02 -6.66 18.04 -7 16 C-5.68 16 -4.36 16 -3 16 C-3.33 17.32 -3.66 18.64 -4 20 C-3.32453125 19.7834375 -2.6490625 19.566875 -1.953125 19.34375 C-1.06109375 19.0653125 -0.1690625 18.786875 0.75 18.5 C1.63171875 18.2215625 2.5134375 17.943125 3.421875 17.65625 C6 17 6 17 10 17 C10.38922918 18.28745036 10.76098036 19.58019597 11.125 20.875 C11.33382812 21.59429688 11.54265625 22.31359375 11.7578125 23.0546875 C11.83773437 23.69664063 11.91765625 24.33859375 12 25 C9.04816899 27.95183101 6.04488053 28.08663988 2 29 C2 28.01 2 27.02 2 26 C-3.30722819 29.03329528 -3.30722819 29.03329528 -5.9375 34.3125 C-5.958125 35.199375 -5.97875 36.08625 -6 37 C-6.33 35.68 -6.66 34.36 -7 33 C-7.66 33 -8.32 33 -9 33 C-9 36.3 -9 39.6 -9 43 C-9.66 42.67 -10.32 42.34 -11 42 C-11 41.34 -11 40.68 -11 40 C-11.66 40 -12.32 40 -13 40 C-12.34 42.97 -11.68 45.94 -11 49 C-11.66 48.67 -12.32 48.34 -13 48 C-12.855625 48.5775 -12.71125 49.155 -12.5625 49.75 C-12.04166667 51.83333333 -11.52083333 53.91666667 -11 56 C-11.99 55.67 -12.98 55.34 -14 55 C-13.34 56.65 -12.68 58.3 -12 60 C-11.01 60 -10.02 60 -9 60 C-8.67 61.32 -8.34 62.64 -8 64 C-8.86625 63.7215625 -8.86625 63.7215625 -9.75 63.4375 C-12.22488597 62.95627217 -13.60985476 63.32212267 -16 64 C-19.98494524 54.29752463 -20.24768995 45.09798965 -20.375 34.6875 C-20.41238281 33.50865234 -20.44976562 32.32980469 -20.48828125 31.11523438 C-20.49988281 29.98794922 -20.51148438 28.86066406 -20.5234375 27.69921875 C-20.54325684 26.67658936 -20.56307617 25.65395996 -20.58349609 24.6003418 C-20 22 -20 22 -17.53979492 20.26977539 C-16.7016626 19.85074951 -15.86353027 19.43172363 -15 19 C-13.78464313 16.99570702 -13.78464313 16.99570702 -12.9375 14.75 C-9.77940286 8.48507352 -4.07796393 6.01474766 2 3 C1.34 2.01 0.68 1.02 0 0 Z " fill="#0F84C1" transform="translate(36,2)"/>
<path d="M0 0 C2.64126418 2.82450978 3.41297871 5.09137448 3.9375 8.875 C4.72854831 13.45369485 6.35553096 16.16125462 9 20 C10.0625 23.5625 10.0625 23.5625 10 27 C7.02478159 31.02529549 4.82938705 32.23575356 0 33 C0 24 0 15 0 6 C-0.33 15.24 -0.66 24.48 -1 34 C-13.22222222 32.77777778 -13.22222222 32.77777778 -18 28 C-18.41927653 23.72337943 -18.24122639 21.44918017 -16.1875 17.625 C-14 15 -14 15 -11 14 C-11.0928125 12.7625 -11.0928125 12.7625 -11.1875 11.5 C-10.96272708 7.30423879 -9.94221507 3.732973 -8 0 C-5.03475663 -1.48262169 -3.14877613 -0.83538959 0 0 Z " fill="#F7F6F5" transform="translate(54,32)"/>
<path d="M0 0 C6.29857196 0.66475693 12.29814352 0.20193626 18.5859375 -0.34375 C22.00959996 -0.4897484 24.90858118 -0.20345659 28.25 0.5 C27.97606909 3.78717092 27.6000362 5.17090055 25.16015625 7.46484375 C21.89205134 9.75032383 18.55567959 11.33801089 14.875 12.8125 C14.24078125 13.08900391 13.6065625 13.36550781 12.953125 13.65039062 C5.50889526 16.66606328 -0.45707749 14.53148574 -7.5 11.6875 C-8.15871094 11.43935547 -8.81742188 11.19121094 -9.49609375 10.93554688 C-13.27287566 9.43019668 -15.86682357 8.18905831 -17.75 4.5 C-17.75 3.18 -17.75 1.86 -17.75 0.5 C-11.75535194 -0.19087256 -6.0145633 -0.65267926 0 0 Z " fill="#68B4DA" transform="translate(44.75,80.5)"/>
<path d="M0 0 C0.99 0.66 1.98 1.32 3 2 C3.66 1.67 4.32 1.34 5 1 C5 1.66 5 2.32 5 3 C6.32 2.34 7.64 1.68 9 1 C8.6875 3.875 8.6875 3.875 8 7 C7.01 7.66 6.02 8.32 5 9 C2.3125 8.125 2.3125 8.125 0 7 C0 7.66 0 8.32 0 9 C0.99 9 1.98 9 3 9 C3 9.66 3 10.32 3 11 C5.64 11.33 8.28 11.66 11 12 C10.40772295 14.10754422 9.80073662 16.21095876 9.1875 18.3125 C8.85105469 19.48425781 8.51460937 20.65601563 8.16796875 21.86328125 C6.44264943 26.49683112 6.44264943 26.49683112 4 28 C1.29296875 28.07421875 1.29296875 28.07421875 -1.8125 27.6875 C-5.91346505 27.20411629 -9.86816014 26.93206242 -14 27 C-14 25.68 -14 24.36 -14 23 C-15.32 22.67 -16.64 22.34 -18 22 C-17.34 21.67 -16.68 21.34 -16 21 C-15.67 19.68 -15.34 18.36 -15 17 C-17.97 17 -20.94 17 -24 17 C-24 16.67 -24 16.34 -24 16 C-21.36 15.67 -18.72 15.34 -16 15 C-16 14.34 -16 13.68 -16 13 C-14.68 13 -13.36 13 -12 13 C-11.67 12.34 -11.34 11.68 -11 11 C-9.35 11.33 -7.7 11.66 -6 12 C-6 11.34 -6 10.68 -6 10 C-5.01 10 -4.02 10 -3 10 C-2.67 8.68 -2.34 7.36 -2 6 C-1.34 6 -0.68 6 0 6 C-0.185625 5.195625 -0.37125 4.39125 -0.5625 3.5625 C-0.706875 2.716875 -0.85125 1.87125 -1 1 C-0.67 0.67 -0.34 0.34 0 0 Z " fill="#195825" transform="translate(69,54)"/>
<path d="M0 0 C1.32 0.33 2.64 0.66 4 1 C4.77528479 4.42573937 5.11918778 7.57239245 5.09765625 11.08203125 C5.09443359 12.01337891 5.09121094 12.94472656 5.08789062 13.90429688 C5.07951172 14.86400391 5.07113281 15.82371094 5.0625 16.8125 C5.05798828 17.79154297 5.05347656 18.77058594 5.04882812 19.77929688 C5.03708684 22.18626111 5.02066419 24.59309857 5 27 C5.33 27 5.66 27 6 27 C6.25 34.625 6.25 34.625 4 38 C3.67 37.34 3.34 36.68 3 36 C2.34 38.31 1.68 40.62 1 43 C-2.96 42.505 -2.96 42.505 -7 42 C-7 41.34 -7 40.68 -7 40 C-7.99 40 -8.98 40 -10 40 C-10 39.34 -10 38.68 -10 38 C-8.02 38.33 -6.04 38.66 -4 39 C-3.34 37.02 -2.68 35.04 -2 33 C-2.78375 33.185625 -3.5675 33.37125 -4.375 33.5625 C-7 34 -7 34 -9 33 C-9 32.34 -9 31.68 -9 31 C-5.98968256 30.06576355 -5.13349732 29.95550089 -2 31 C-2.33 29.02 -2.66 27.04 -3 25 C-4.98 25.66 -6.96 26.32 -9 27 C-9 26.01 -9 25.02 -9 24 C-7.35 23.67 -5.7 23.34 -4 23 C-4.33 20.36 -4.66 17.72 -5 15 C-5.66 15 -6.32 15 -7 15 C-6.67 13.68 -6.34 12.36 -6 11 C-4.35 10.67 -2.7 10.34 -1 10 C-1.495 8.8553125 -1.495 8.8553125 -2 7.6875 C-3 5 -3 5 -3 2 C-2.01 2 -1.02 2 0 2 C0 1.34 0 0.68 0 0 Z " fill="#1085C6" transform="translate(79,23)"/>
<path d="M0 0 C0.61875 0.165 1.2375 0.33 1.875 0.5 C3.96063386 1.07634644 3.96063386 1.07634644 6 1 C10.23208918 1.46000969 12.78948847 2.15993211 16 5 C16.66 4.67 17.32 4.34 18 4 C18 5.32 18 6.64 18 8 C17.195625 8.268125 16.39125 8.53625 15.5625 8.8125 C14.716875 9.204375 13.87125 9.59625 13 10 C12.67 10.99 12.34 11.98 12 13 C12.66 13 13.32 13 14 13 C14.33 15.64 14.66 18.28 15 21 C13.35 21.66 11.7 22.32 10 23 C10.66 23.66 11.32 24.32 12 25 C12.33 24.34 12.66 23.68 13 23 C15.0625 22.375 15.0625 22.375 17 22 C17 24.31 17 26.62 17 29 C13.625 29.1875 13.625 29.1875 10 29 C7.70366176 25.55549263 7.45983515 23.06187717 7 19 C6.34 19 5.68 19 5 19 C3.76078698 16.02588876 2.69941596 13.14737182 2 10 C0.35 9.67 -1.3 9.34 -3 9 C-3 8.34 -3 7.68 -3 7 C-2.01 7 -1.02 7 0 7 C0 6.01 0 5.02 0 4 C0.66 4 1.32 4 2 4 C2 3.01 2 2.02 2 1 C1.34 0.67 0.68 0.34 0 0 Z " fill="#1185C5" transform="translate(60,25)"/>
<path d="M0 0 C1.79244141 0.01740234 1.79244141 0.01740234 3.62109375 0.03515625 C5.41740234 0.04869141 5.41740234 0.04869141 7.25 0.0625 C8.17683594 0.07410156 9.10367188 0.08570313 10.05859375 0.09765625 C10.55359375 1.08765625 10.55359375 1.08765625 11.05859375 2.09765625 C10.12109375 4.72265625 10.12109375 4.72265625 9.05859375 7.09765625 C9.8784375 7.35160156 10.69828125 7.60554687 11.54296875 7.8671875 C12.620625 8.21136719 13.69828125 8.55554687 14.80859375 8.91015625 C16.40960938 9.41482422 16.40960938 9.41482422 18.04296875 9.9296875 C20.84900162 11.01648002 22.77845751 12.16618162 25.05859375 14.09765625 C23.07859375 14.42765625 21.09859375 14.75765625 19.05859375 15.09765625 C19.38859375 14.10765625 19.71859375 13.11765625 20.05859375 12.09765625 C19.31609375 12.30390625 18.57359375 12.51015625 17.80859375 12.72265625 C14.68322618 13.14884274 13.73629699 12.57500976 11.05859375 11.09765625 C10.39859375 11.42765625 9.73859375 11.75765625 9.05859375 12.09765625 C9.05859375 11.43765625 9.05859375 10.77765625 9.05859375 10.09765625 C7.40859375 10.09765625 5.75859375 10.09765625 4.05859375 10.09765625 C4.05859375 11.74765625 4.05859375 13.39765625 4.05859375 15.09765625 C3.72859375 15.09765625 3.39859375 15.09765625 3.05859375 15.09765625 C3.05859375 13.44765625 3.05859375 11.79765625 3.05859375 10.09765625 C0.41859375 11.08765625 -2.22140625 12.07765625 -4.94140625 13.09765625 C-5.27140625 12.76765625 -5.60140625 12.43765625 -5.94140625 12.09765625 C-6.60140625 12.75765625 -7.26140625 13.41765625 -7.94140625 14.09765625 C-7.94140625 13.43765625 -7.94140625 12.77765625 -7.94140625 12.09765625 C-8.93140625 12.42765625 -9.92140625 12.75765625 -10.94140625 13.09765625 C-10.94140625 15.07765625 -10.94140625 17.05765625 -10.94140625 19.09765625 C-11.93140625 19.09765625 -12.92140625 19.09765625 -13.94140625 19.09765625 C-13.94140625 17.77765625 -13.94140625 16.45765625 -13.94140625 15.09765625 C-14.60140625 15.09765625 -15.26140625 15.09765625 -15.94140625 15.09765625 C-15.94140625 17.07765625 -15.94140625 19.05765625 -15.94140625 21.09765625 C-16.93140625 21.09765625 -17.92140625 21.09765625 -18.94140625 21.09765625 C-18.94140625 21.75765625 -18.94140625 22.41765625 -18.94140625 23.09765625 C-18.28140625 23.42765625 -17.62140625 23.75765625 -16.94140625 24.09765625 C-18.92140625 25.41765625 -20.90140625 26.73765625 -22.94140625 28.09765625 C-22.61140625 26.11765625 -22.28140625 24.13765625 -21.94140625 22.09765625 C-22.60140625 22.09765625 -23.26140625 22.09765625 -23.94140625 22.09765625 C-23.44640625 20.61265625 -23.44640625 20.61265625 -22.94140625 19.09765625 C-21.95140625 19.09765625 -20.96140625 19.09765625 -19.94140625 19.09765625 C-20.27140625 18.10765625 -20.60140625 17.11765625 -20.94140625 16.09765625 C-15.09404527 11.31345181 -9.15124935 9.21680554 -1.94140625 7.09765625 C-2.60140625 5.11765625 -3.26140625 3.13765625 -3.94140625 1.09765625 C-2.94140625 0.09765625 -2.94140625 0.09765625 0 0 Z " fill="#E7E6E7" transform="translate(45.94140625,2.90234375)"/>
<path d="M0 0 C0.99 0 1.98 0 3 0 C3.76054688 -0.01160156 4.52109375 -0.02320313 5.3046875 -0.03515625 C15.70833333 -0.14583333 15.70833333 -0.14583333 20 2 C21.32 2 22.64 2 24 2 C24.495 2.99 24.495 2.99 25 4 C26.32 4 27.64 4 29 4 C29 5.65 29 7.3 29 9 C23.147205 8.48517081 17.6702363 7.54642808 12 6 C11.34 9.63 10.68 13.26 10 17 C8.35 17 6.7 17 5 17 C4.67 13.37 4.34 9.74 4 6 C2.948125 6.350625 1.89625 6.70125 0.8125 7.0625 C-2.7954681 7.94970527 -4.52632489 8.05262882 -8 7 C-7.67 5.35 -7.34 3.7 -7 2 C-5.34385343 1.61781233 -3.67542976 1.28604898 -2 1 C-1.67 1.33 -1.34 1.66 -1 2 C-0.67 1.34 -0.34 0.68 0 0 Z " fill="#C0BFC1" transform="translate(42,13)"/>
<path d="M0 0 C2.72869407 0.03287583 5.2966618 0.56397771 8 1 C7.59551326 12.54809653 7.59551326 12.54809653 3 17 C1.43569752 20.12860495 1.64372716 22.55602925 2 26 C4.39859044 28.33630748 4.39859044 28.33630748 7 30 C7 30.66 7 31.32 7 32 C3.6875 32.25 3.6875 32.25 0 32 C-2.66611908 29.23133787 -3.67580471 26.41137343 -4.6875 22.75 C-4.93886719 21.85796875 -5.19023437 20.9659375 -5.44921875 20.046875 C-5.63097656 19.37140625 -5.81273437 18.6959375 -6 18 C-6.99 20.475 -6.99 20.475 -8 23 C-8.33 23 -8.66 23 -9 23 C-9.19294408 18.17639811 -8.75747614 14.50353262 -7 10 C-6.01 10.33 -5.02 10.66 -4 11 C-4.99 12.485 -4.99 12.485 -6 14 C-4.68 13.67 -3.36 13.34 -2 13 C-2 11.68 -2 10.36 -2 9 C-1.34 9 -0.68 9 0 9 C0.144375 8.38125 0.28875 7.7625 0.4375 7.125 C1 5 1 5 2 3 C0.68 2.67 -0.64 2.34 -2 2 C-1.34 1.34 -0.68 0.68 0 0 Z " fill="#0B85C7" transform="translate(35,34)"/>
<path d="M0 0 C0.66 0 1.32 0 2 0 C4.67927341 4.01891012 4.15601248 6.24161923 4 11 C4.99 10.34 5.98 9.68 7 9 C7.19335938 9.77085938 7.38671875 10.54171875 7.5859375 11.3359375 C7.84632812 12.33882812 8.10671875 13.34171875 8.375 14.375 C8.63023438 15.37273438 8.88546875 16.37046875 9.1484375 17.3984375 C9.82404319 20.12541015 9.82404319 20.12541015 12 22 C12.12375 23.299375 12.2475 24.59875 12.375 25.9375 C12.69066497 29.39566077 12.69066497 29.39566077 15.0625 32 C15.701875 32.33 16.34125 32.66 17 33 C16.34 33 15.68 33 15 33 C15 33.66 15 34.32 15 35 C11.81707811 35.2170174 9.65399994 35.35502854 6.8125 33.8125 C4.73182554 31.73182554 3.44178214 29.55588651 2 27 C1.34 26.34 0.68 25.68 0 25 C0.33 24.01 0.66 23.02 1 22 C1.99 22.33 2.98 22.66 4 23 C3.67 22.34 3.34 21.68 3 21 C2.01 20.67 1.02 20.34 0 20 C-0.33 18.35 -0.66 16.7 -1 15 C-0.34 15 0.32 15 1 15 C0.649375 14.4225 0.29875 13.845 -0.0625 13.25 C-1.17253823 10.58590824 -0.8645099 9.67998068 0 7 C0 6.01 0 5.02 0 4 C0 2.68 0 1.36 0 0 Z " fill="#347681" transform="translate(23,42)"/>
<path d="M0 0 C2.3125 0.1875 2.3125 0.1875 5 1 C7.60188256 4.31964326 8 5.69316041 8 10 C8.66 10 9.32 10 10 10 C10.52973311 11.62212059 11.04853107 13.24781584 11.5625 14.875 C11.85253906 15.77992187 12.14257812 16.68484375 12.44140625 17.6171875 C13 20 13 20 12 22 C12 23.32 12 24.64 12 26 C11.34 26 10.68 26 10 26 C9.67 27.32 9.34 28.64 9 30 C8.01 30 7.02 30 6 30 C6 30.66 6 31.32 6 32 C4.35 32 2.7 32 1 32 C0.67 31.34 0.34 30.68 0 30 C0.804375 29.62875 1.60875 29.2575 2.4375 28.875 C5.1941407 27.20771871 5.1941407 27.20771871 6.0625 24.3125 C5.98902402 20.41827293 4.90337522 18.36296537 3.05859375 15.01171875 C0.49561039 10.14110462 -0.26553502 5.44346786 0 0 Z " fill="#0B87CA" transform="translate(57,34)"/>
<path d="M0 0 C0.33 0 0.66 0 1 0 C1 10.23 1 20.46 1 31 C-3.92025549 30.0159489 -5.69404313 29.5893246 -9 26 C-9.72974514 21.62152919 -9.29139494 19.54259747 -7.1875 15.625 C-5 13 -5 13 -2 12 C-2.061875 10.700625 -2.061875 10.700625 -2.125 9.375 C-1.99542279 5.87641532 -1.23980344 3.25448403 0 0 Z " fill="#93852D" transform="translate(45,34)"/>
<path d="M0 0 C0.2475 0.99 0.495 1.98 0.75 3 C1.56485002 5.94416611 2.70321801 8.39695552 4.1875 11.0625 C5.59843784 13.81515986 6.00222597 15.05787517 6.125 18.25 C4.5827341 22.01998332 2.5599729 23.14881409 -1 25 C-1.99 25 -2.98 25 -4 25 C-4 17.08 -4 9.16 -4 1 C-2 0 -2 0 0 0 Z " fill="#9A9159" transform="translate(58,40)"/>
<path d="M0 0 C1.98 0.66 3.96 1.32 6 2 C3.1541997 4.24772218 0.26513984 5.9373223 -2.9375 7.625 C-7.66001597 10.38095507 -9.68443298 13.04263916 -11.76953125 18.046875 C-13 20 -13 20 -18 22 C-18 31.57 -18 41.14 -18 51 C-18.33 51 -18.66 51 -19 51 C-19.9802248 45.31160882 -20.11948801 39.82705667 -20.0625 34.0625 C-20.05573242 32.75055664 -20.05573242 32.75055664 -20.04882812 31.41210938 C-20.03714834 29.27470953 -20.01921689 27.13734537 -20 25 C-20.33 25 -20.66 25 -21 25 C-21.3125 22.6875 -21.3125 22.6875 -21 20 C-20.2575 19.5875 -19.515 19.175 -18.75 18.75 C-15.59175884 16.74021017 -15.51892968 16.0796479 -14.375 12.6875 C-12.23875613 7.19940906 -8.52589439 5.59150852 -3.36328125 3.19140625 C-0.86448523 2.22676754 -0.86448523 2.22676754 0 0 Z " fill="#8EB3C7" transform="translate(34,2)"/>
<path d="M0 0 C6.93 0 13.86 0 21 0 C21 0.33 21 0.66 21 1 C16.38 1.33 11.76 1.66 7 2 C7.66 4.31 8.32 6.62 9 9 C7.96359375 9.31453125 6.9271875 9.6290625 5.859375 9.953125 C4.48937869 10.38476767 3.11959814 10.8170956 1.75 11.25 C1.06808594 11.45496094 0.38617188 11.65992188 -0.31640625 11.87109375 C-4.47325315 13.20289907 -7.29929607 14.51971143 -10 18 C-10 18.66 -10 19.32 -10 20 C-10.99 20.33 -11.98 20.66 -13 21 C-13.66 21.66 -14.32 22.32 -15 23 C-14.58092026 17.41227017 -12.77273089 13.10681722 -9 9 C-5.47973351 6.66305797 -1.83213374 4.77177462 2 3 C1.34 2.01 0.68 1.02 0 0 Z " fill="#1786C5" transform="translate(36,2)"/>
<path d="M0 0 C0.99 0.33 1.98 0.66 3 1 C2.67 2.32 2.34 3.64 2 5 C2.67546875 4.7834375 3.3509375 4.566875 4.046875 4.34375 C5.38492188 3.92609375 5.38492188 3.92609375 6.75 3.5 C7.63171875 3.2215625 8.5134375 2.943125 9.421875 2.65625 C12 2 12 2 16 2 C16.38922918 3.28745036 16.76098036 4.58019597 17.125 5.875 C17.33382812 6.59429688 17.54265625 7.31359375 17.7578125 8.0546875 C17.83773437 8.69664063 17.91765625 9.33859375 18 10 C15.04816899 12.95183101 12.04488053 13.08663988 8 14 C8 13.01 8 12.02 8 11 C7.37351562 10.93941406 6.74703125 10.87882812 6.1015625 10.81640625 C5.28429688 10.73261719 4.46703125 10.64882813 3.625 10.5625 C2.40683594 10.44068359 2.40683594 10.44068359 1.1640625 10.31640625 C-1 10 -1 10 -3 9 C-3 8.34 -3 7.68 -3 7 C-2.01 7 -1.02 7 0 7 C-0.185625 6.030625 -0.37125 5.06125 -0.5625 4.0625 C-0.706875 3.051875 -0.85125 2.04125 -1 1 C-0.67 0.67 -0.34 0.34 0 0 Z " fill="#1184C2" transform="translate(30,17)"/>
<path d="M0 0 C0.66 0 1.32 0 2 0 C2.33 0.66 2.66 1.32 3 2 C4.65 1.67 6.3 1.34 8 1 C6.125 5.875 6.125 5.875 5 7 C3 7 1 7 -1 7 C-1.33 7.33 -1.66 7.66 -2 8 C-1.01 8.33 -0.02 8.66 1 9 C0.34 10.98 -0.32 12.96 -1 15 C-1.66 15 -2.32 15 -3 15 C-3 16.32 -3 17.64 -3 19 C-4.32 19.33 -5.64 19.66 -7 20 C-6.67 19.01 -6.34 18.02 -6 17 C-6.99 17 -7.98 17 -9 17 C-10.125 9.25 -10.125 9.25 -9 7 C-8.34 7 -7.68 7 -7 7 C-5.29115995 5.37660195 -3.62553283 3.70680947 -2 2 C-1.34 1.34 -0.68 0.68 0 0 Z " fill="#5A764D" transform="translate(36,28)"/>
<path d="M0 0 C-0.27393091 3.28717092 -0.6499638 4.67090055 -3.08984375 6.96484375 C-6.35794866 9.25032383 -9.69432041 10.83801089 -13.375 12.3125 C-14.00921875 12.58900391 -14.6434375 12.86550781 -15.296875 13.15039062 C-21.00903905 15.46439994 -25.24529105 14.99638409 -30.9375 12.9375 C-31.618125 12.628125 -32.29875 12.31875 -33 12 C-27.78271224 10.5953456 -23.31896398 9.59203895 -18 11 C-17.67 10.01 -17.34 9.02 -17 8 C-16.01 8 -15.02 8 -14 8 C-13.34 7.34 -12.68 6.68 -12 6 C-9.375 6.375 -9.375 6.375 -7 7 C-6.67 5.68 -6.34 4.36 -6 3 C-9.73486879 2.4254048 -13.21293268 2 -17 2 C-17.66 1.34 -18.32 0.68 -19 0 C-12.60624381 -1.59843905 -6.40654045 -1.28130809 0 0 Z " fill="#1188CC" transform="translate(73,81)"/>
<path d="M0 0 C0.99 0.66 1.98 1.32 3 2 C3.66 1.67 4.32 1.34 5 1 C5 1.66 5 2.32 5 3 C6.32 2.34 7.64 1.68 9 1 C8.6875 3.875 8.6875 3.875 8 7 C7.01 7.66 6.02 8.32 5 9 C2.3125 8.125 2.3125 8.125 0 7 C0 7.66 0 8.32 0 9 C0.99 9 1.98 9 3 9 C2.34 11.64 1.68 14.28 1 17 C-1.31 17 -3.62 17 -6 17 C-6 17.99 -6 18.98 -6 20 C-6.99 20 -7.98 20 -9 20 C-9 19.34 -9 18.68 -9 18 C-9.66 17.67 -10.32 17.34 -11 17 C-11 16.01 -11 15.02 -11 14 C-9.68 14 -8.36 14 -7 14 C-6.67 12.68 -6.34 11.36 -6 10 C-5.01 10 -4.02 10 -3 10 C-2.67 8.68 -2.34 7.36 -2 6 C-1.34 6 -0.68 6 0 6 C-0.2784375 4.7934375 -0.2784375 4.7934375 -0.5625 3.5625 C-0.706875 2.716875 -0.85125 1.87125 -1 1 C-0.67 0.67 -0.34 0.34 0 0 Z " fill="#205D40" transform="translate(69,54)"/>
<path d="M0 0 C1.52519276 0.08937803 3.04681929 0.24537146 4.5625 0.4375 C5.38878906 0.53933594 6.21507813 0.64117187 7.06640625 0.74609375 C7.70449219 0.82988281 8.34257813 0.91367188 9 1 C8.5247412 2.64696604 8.04468109 4.29254728 7.5625 5.9375 C7.29566406 6.85402344 7.02882813 7.77054687 6.75390625 8.71484375 C6 11 6 11 5 12 C2.98035801 12.07244053 0.95832876 12.08377188 -1.0625 12.0625 C-2.16722656 12.05347656 -3.27195312 12.04445313 -4.41015625 12.03515625 C-5.69212891 12.01775391 -5.69212891 12.01775391 -7 12 C-7.125 9.125 -7.125 9.125 -7 6 C-6.34 5.34 -5.68 4.68 -5 4 C-5 4.66 -5 5.32 -5 6 C-3.68 6 -2.36 6 -1 6 C-1.020625 5.195625 -1.04125 4.39125 -1.0625 3.5625 C-1 1 -1 1 0 0 Z " fill="#0C782E" transform="translate(71,65)"/>
<path d="M0 0 C7.290417 -0.52229853 12.3271322 2.66813963 18 7 C20.31449252 10.02622614 22 13.07763278 22 17 C20.0625 16.6875 20.0625 16.6875 18 16 C17.67 15.01 17.34 14.02 17 13 C11.10485031 9.50849658 4.67572811 7.38552848 -2 6 C-1.34 4.02 -0.68 2.04 0 0 Z " fill="#0C84C5" transform="translate(56,5)"/>
<path d="M0 0 C2 4 2 4 3 7 C2.67 7.66 2.34 8.32 2 9 C1.84777027 10.66565749 1.75082785 12.33656496 1.68359375 14.0078125 C1.64169922 14.99394531 1.59980469 15.98007812 1.55664062 16.99609375 C1.51732422 18.02863281 1.47800781 19.06117187 1.4375 20.125 C1.39431641 21.16527344 1.35113281 22.20554687 1.30664062 23.27734375 C1.2003712 25.85142528 1.09833417 28.42560508 1 31 C1.99 31 2.98 31 4 31 C4 31.66 4 32.32 4 33 C2.68 33 1.36 33 0 33 C0 33.66 0 34.32 0 35 C0.66 35.33 1.32 35.66 2 36 C-3.445 36.495 -3.445 36.495 -9 37 C-9 36.01 -9 35.02 -9 34 C-9.495 36.475 -9.495 36.475 -10 39 C-11.32 38.67 -12.64 38.34 -14 38 C-14 37.34 -14 36.68 -14 36 C-14.66 36 -15.32 36 -16 36 C-16 35.01 -16 34.02 -16 33 C-15.38125 32.87625 -14.7625 32.7525 -14.125 32.625 C-11.80879168 32.12802644 -11.80879168 32.12802644 -10 30 C-6.7 30.66 -3.4 31.32 0 32 C0 21.44 0 10.88 0 0 Z " fill="#6D772A" transform="translate(53,34)"/>
<path d="M0 0 C-1.8125 1.0625 -1.8125 1.0625 -4 2 C-4.99 1.67 -5.98 1.34 -7 1 C-7.33 1.33 -7.66 1.66 -8 2 C-7.01 2 -6.02 2 -5 2 C-5 2.66 -5 3.32 -5 4 C-5.99 4.495 -5.99 4.495 -7 5 C-6.67 5.66 -6.34 6.32 -6 7 C-6.99 7.495 -6.99 7.495 -8 8 C-7.67 8.66 -7.34 9.32 -7 10 C-8.60879422 9.60157441 -10.21198173 9.18046843 -11.8125 8.75 C-13.15248047 8.40195313 -13.15248047 8.40195313 -14.51953125 8.046875 C-17.44712489 6.81129217 -18.47894796 5.76922432 -20 3 C-20 1.68 -20 0.36 -20 -1 C-12.80798031 -1.88701576 -6.93171463 -2.26613747 0 0 Z " fill="#1187CB" transform="translate(47,82)"/>
<path d="M0 0 C1.98 0 3.96 0 6 0 C4.68 0.33 3.36 0.66 2 1 C2 1.99 2 2.98 2 4 C2.66 4 3.32 4 4 4 C4.33 4.66 4.66 5.32 5 6 C5.99 6.33 6.98 6.66 8 7 C7.67 5.35 7.34 3.7 7 2 C7.66 2 8.32 2 9 2 C9 2.99 9 3.98 9 5 C12.3 5 15.6 5 19 5 C18.34 6.65 17.68 8.3 17 10 C18.32 10.33 19.64 10.66 21 11 C20.67 12.32 20.34 13.64 20 15 C19.01 15 18.02 15 17 15 C17 14.01 17 13.02 17 12 C15.27185839 11.80327635 13.54240803 11.61803201 11.8125 11.4375 C10.84957031 11.33308594 9.88664062 11.22867188 8.89453125 11.12109375 C6.05766623 11.00241249 3.74576329 11.32234361 1 12 C1.66 11.67 2.32 11.34 3 11 C3 10.01 3 9.02 3 8 C2.01 7.34 1.02 6.68 0 6 C-0.1875 2.875 -0.1875 2.875 0 0 Z " fill="#0F752A" transform="translate(35,66)"/>
<path d="M0 0 C0.99 0.33 1.98 0.66 3 1 C3.12375 2.8871875 3.12375 2.8871875 3.25 4.8125 C3.66557143 8.33811212 3.66557143 8.33811212 6.0625 11 C7.0215625 11.495 7.0215625 11.495 8 12 C7.34 12 6.68 12 6 12 C6 12.66 6 13.32 6 14 C2.81707811 14.2170174 0.65399994 14.35502854 -2.1875 12.8125 C-4.26817446 10.73182554 -5.55821786 8.55588651 -7 6 C-7.66 5.34 -8.32 4.68 -9 4 C-8.67 3.01 -8.34 2.02 -8 1 C-5.36 1.66 -2.72 2.32 0 3 C0 2.01 0 1.02 0 0 Z " fill="#387D25" transform="translate(32,63)"/>
<path d="M0 0 C0.928125 0.20625 1.85625 0.4125 2.8125 0.625 C2.4825 1.285 2.1525 1.945 1.8125 2.625 C2.8025 2.955 3.7925 3.285 4.8125 3.625 C4.235 3.893125 3.6575 4.16125 3.0625 4.4375 C-0.6453827 6.39443809 -2.83062738 7.55438213 -4.1875 11.625 C-7.5625 11.375 -7.5625 11.375 -11.1875 10.625 C-12.625 8.5625 -12.625 8.5625 -13.1875 6.625 C-11.8675 5.965 -10.5475 5.305 -9.1875 4.625 C-9.1875 3.965 -9.1875 3.305 -9.1875 2.625 C-11.1675 2.955 -13.1475 3.285 -15.1875 3.625 C-13.5 2.0625 -13.5 2.0625 -11.1875 0.625 C-9.51207024 0.91104898 -7.84364657 1.24281233 -6.1875 1.625 C-3.1875 -0.375 -3.1875 -0.375 0 0 Z " fill="#2493CF" transform="translate(51.1875,81.375)"/>
<path d="M0 0 C1.79244141 0.01740234 1.79244141 0.01740234 3.62109375 0.03515625 C5.41740234 0.04869141 5.41740234 0.04869141 7.25 0.0625 C8.17683594 0.07410156 9.10367188 0.08570313 10.05859375 0.09765625 C10.38859375 0.75765625 10.71859375 1.41765625 11.05859375 2.09765625 C10.12109375 4.72265625 10.12109375 4.72265625 9.05859375 7.09765625 C7.43535289 7.31927954 5.80987275 7.52455428 4.18359375 7.72265625 C2.82621094 7.89667969 2.82621094 7.89667969 1.44140625 8.07421875 C0.65507813 8.08195313 -0.13125 8.0896875 -0.94140625 8.09765625 C-3.30697334 5.73208916 -3.52384666 4.35462104 -3.94140625 1.09765625 C-2.94140625 0.09765625 -2.94140625 0.09765625 0 0 Z " fill="#F5F4F6" transform="translate(45.94140625,2.90234375)"/>
<path d="M0 0 C0.66 0 1.32 0 2 0 C2.33 2.64 2.66 5.28 3 8 C1.35 8.66 -0.3 9.32 -2 10 C-1.34 10.66 -0.68 11.32 0 12 C0.33 11.34 0.66 10.68 1 10 C3.0625 9.375 3.0625 9.375 5 9 C5 11.31 5 13.62 5 16 C1.625 16.1875 1.625 16.1875 -2 16 C-4.45823172 12.31265242 -5.01242616 9.30300029 -6 5 C-5.01 5 -4.02 5 -3 5 C-2.67 4.01 -2.34 3.02 -2 2 C-1.34 2.33 -0.68 2.66 0 3 C0 2.01 0 1.02 0 0 Z " fill="#1F5A3C" transform="translate(72,38)"/>
<path d="M0 0 C0.99 0.33 1.98 0.66 3 1 C3.01417969 1.60328125 3.02835938 2.2065625 3.04296875 2.828125 C3.28345203 8.26080431 3.28345203 8.26080431 6.5625 12.4375 C7.366875 12.953125 8.17125 13.46875 9 14 C9 14.66 9 15.32 9 16 C2.58501441 16.48414986 2.58501441 16.48414986 0.1875 14.5 C-1.44222964 11.06899023 -2.19541207 7.71348276 -3 4 C-2.34 4 -1.68 4 -1 4 C-0.67 2.68 -0.34 1.36 0 0 Z " fill="#1086C7" transform="translate(33,50)"/>
<path d="M0 0 C0.33 0 0.66 0 1 0 C1 7.59 1 15.18 1 23 C2.98 22.67 4.96 22.34 7 22 C7 24.97 7 27.94 7 31 C5.00045254 31.04254356 2.99958364 31.04080783 1 31 C0 30 0 30 -0.11352539 27.13256836 C-0.10828857 25.88096924 -0.10305176 24.62937012 -0.09765625 23.33984375 C-0.0962413 22.67537735 -0.09482635 22.01091095 -0.09336853 21.3263092 C-0.08775518 19.19666101 -0.07520054 17.06711661 -0.0625 14.9375 C-0.05748671 13.49674631 -0.05292351 12.05599097 -0.04882812 10.61523438 C-0.03778145 7.07678898 -0.02050792 3.53840461 0 0 Z " fill="#E6E3E3" transform="translate(46,35)"/>
<path d="M0 0 C2.390625 1.63671875 2.390625 1.63671875 4 3 C2.02 3.33 0.04 3.66 -2 4 C-1.67 3.01 -1.34 2.02 -1 1 C-2.11375 1.309375 -2.11375 1.309375 -3.25 1.625 C-6.37536757 2.05118649 -7.32229676 1.47735351 -10 0 C-10.99 0.495 -10.99 0.495 -12 1 C-12 0.34 -12 -0.32 -12 -1 C-13.65 -1 -15.3 -1 -17 -1 C-17 0.65 -17 2.3 -17 4 C-17.33 4 -17.66 4 -18 4 C-18 2.35 -18 0.7 -18 -1 C-20.31 -1.33 -22.62 -1.66 -25 -2 C-17.49499377 -7.00333748 -7.55671684 -2.9887015 0 0 Z " fill="#D2D3D6" transform="translate(67,14)"/>
<path d="M0 0 C0.99 0.66 1.98 1.32 3 2 C2.46717222 8.92676119 0.93645955 15.67142337 -2 22 C-2.99 22.33 -3.98 22.66 -5 23 C-3.83675515 15.15836122 -2.2452987 7.60407828 0 0 Z " fill="#7AB0CB" transform="translate(82,56)"/>
<path d="M0 0 C3.625 0.375 3.625 0.375 7 1 C6.01 1.495 6.01 1.495 5 2 C5 2.99 5 3.98 5 5 C4.34 5 3.68 5 3 5 C2.67 5.66 2.34 6.32 2 7 C4.31 7.33 6.62 7.66 9 8 C9 8.99 9 9.98 9 11 C8.34 11 7.68 11 7 11 C6.67 11.66 6.34 12.32 6 13 C3.9375 13.625 3.9375 13.625 2 14 C0.33510818 10.07561214 -0.87204037 6.10899581 -2 2 C-1.34 1.34 -0.68 0.68 0 0 Z " fill="#749688" transform="translate(63,30)"/>
<path d="M0 0 C1.32 0.66 2.64 1.32 4 2 C4 2.66 4 3.32 4 4 C4.99 4.66 5.98 5.32 7 6 C7 6.66 7 7.32 7 8 C6.34 8 5.68 8 5 8 C5.33 9.98 5.66 11.96 6 14 C4.51245994 13.26674793 3.03513808 12.51273922 1.5625 11.75 C0.32693359 11.12351562 0.32693359 11.12351562 -0.93359375 10.484375 C-3 9 -3 9 -3.78515625 6.828125 C-3.85605469 6.22484375 -3.92695312 5.6215625 -4 5 C-2.68 5 -1.36 5 0 5 C0 3.35 0 1.7 0 0 Z " fill="#D2D3D7" transform="translate(71,17)"/>
<path d="M0 0 C0.33 0 0.66 0 1 0 C1.07654536 4.51617599 1.10228696 8.59085217 0 13 C-1.65 13 -3.3 13 -5 13 C-5.33 9.37 -5.66 5.74 -6 2 C-4.02 2 -2.04 2 0 2 C0 1.34 0 0.68 0 0 Z " fill="#B8B567" transform="translate(52,17)"/>
<path d="M0 0 C4.30013551 2.15006776 5.55539966 5.13068727 7.125 9.5625 C7.125 10.2225 7.125 10.8825 7.125 11.5625 C5.1875 11.25 5.1875 11.25 3.125 10.5625 C2.795 9.5725 2.465 8.5825 2.125 7.5625 C-0.42451047 6.09409883 -0.42451047 6.09409883 -3.4375 4.875 C-4.44941406 4.43800781 -5.46132812 4.00101563 -6.50390625 3.55078125 C-7.28636719 3.22464844 -8.06882813 2.89851562 -8.875 2.5625 C-2.875 -0.4375 -2.875 -0.4375 0 0 Z " fill="#1C86C3" transform="translate(70.875,10.4375)"/>
<path d="M0 0 C0.66 0.33 1.32 0.66 2 1 C2.125 8.75 2.125 8.75 1 11 C-1.64 10.67 -4.28 10.34 -7 10 C-7 9.34 -7 8.68 -7 8 C-7.99 8 -8.98 8 -10 8 C-10 7.34 -10 6.68 -10 6 C-7.03 6.495 -7.03 6.495 -4 7 C-2.68 4.69 -1.36 2.38 0 0 Z " fill="#409BCE" transform="translate(79,55)"/>
<path d="M0 0 C3.80014965 0.54287852 5.53896313 2.11464643 8 5 C8.33 5.99 8.66 6.98 9 8 C9.66 8.66 10.32 9.32 11 10 C8.36 10 5.72 10 3 10 C0.96564469 6.27034861 0 4.33094958 0 0 Z " fill="#1B7A2F" transform="translate(20,66)"/>
<path d="M0 0 C0.66 0 1.32 0 2 0 C2.66 0.66 3.32 1.32 4 2 C6.10820797 1.6814823 6.10820797 1.6814823 8 1 C8 1.66 8 2.32 8 3 C9.98 2.67 11.96 2.34 14 2 C14 3.65 14 5.3 14 7 C4.58997722 6.03644647 4.58997722 6.03644647 0 5 C0 3.35 0 1.7 0 0 Z " fill="#AAA5A7" transform="translate(57,15)"/>
<path d="M0 0 C0.66 0 1.32 0 2 0 C4.52775351 3.79163027 4.22443035 6.80874031 4.125 11.1875 C4.11597656 11.93708984 4.10695313 12.68667969 4.09765625 13.45898438 C4.07412578 15.30612654 4.03825561 17.15310412 4 19 C2.35 18.67 0.7 18.34 -1 18 C-1 17.01 -1 16.02 -1 15 C-0.34 15 0.32 15 1 15 C0.649375 14.4225 0.29875 13.845 -0.0625 13.25 C-1.17253823 10.58590824 -0.8645099 9.67998068 0 7 C0 6.01 0 5.02 0 4 C0 2.68 0 1.36 0 0 Z " fill="#808E3D" transform="translate(23,42)"/>
<path d="M0 0 C0.33 0 0.66 0 1 0 C1.33 2.31 1.66 4.62 2 7 C1.05125 6.979375 0.1025 6.95875 -0.875 6.9375 C-3.90666283 6.77448174 -3.90666283 6.77448174 -6 8 C-6.61559872 9.98507977 -6.61559872 9.98507977 -7 12.3125 C-7.59749231 15.54002544 -8.41655361 18.11680802 -10 21 C-10.14285714 13.57142857 -10.14285714 13.57142857 -9 10 C-11.475 9.01 -11.475 9.01 -14 8 C-14 7.67 -14 7.34 -14 7 C-13.236875 6.896875 -12.47375 6.79375 -11.6875 6.6875 C-8.82940576 5.95635961 -7.84257115 5.23048087 -6 3 C-5.67 3.66 -5.34 4.32 -5 5 C-3.35 5 -1.7 5 0 5 C0 3.35 0 1.7 0 0 Z " fill="#6AA0BD" transform="translate(52,25)"/>
<path d="M0 0 C2.64 0.33 5.28 0.66 8 1 C4.6916527 4.3083473 0.44396908 5.69883788 -4 7 C-8.44233859 6.85434955 -11.96851089 5.83249505 -16 4 C-10.78271224 2.5953456 -6.31896398 1.59203895 -1 3 C-0.67 2.01 -0.34 1.02 0 0 Z " fill="#1B83BE" transform="translate(56,89)"/>
<path d="M0 0 C0.33 0 0.66 0 1 0 C1 10.56 1 21.12 1 32 C0.67 32 0.34 32 0 32 C-0.144375 30.865625 -0.28875 29.73125 -0.4375 28.5625 C-0.61171478 25.19222799 -0.61171478 25.19222799 -2 24 C-2.08669432 22.5112814 -2.10703494 21.018555 -2.09765625 19.52734375 C-2.09443359 18.62822266 -2.09121094 17.72910156 -2.08789062 16.80273438 C-2.07951172 15.85720703 -2.07113281 14.91167969 -2.0625 13.9375 C-2.05798828 12.98810547 -2.05347656 12.03871094 -2.04882812 11.06054688 C-2.0370011 8.70696935 -2.02052025 6.35351523 -2 4 C-1.34 4 -0.68 4 0 4 C0 2.68 0 1.36 0 0 Z " fill="#57A5CE" transform="translate(14,23)"/>
<path d="M0 0 C1.98 0 3.96 0 6 0 C5.343621 4.48525648 4.29925791 8.66914029 3 13 C2.01 13 1.02 13 0 13 C0 8.71 0 4.42 0 0 Z " fill="#C7B61D" transform="translate(54,52)"/>
<path d="M0 0 C1.98 0.66 3.96 1.32 6 2 C5.67 10.91 5.34 19.82 5 29 C4.67 29 4.34 29 4 29 C3.90912109 27.17275391 3.90912109 27.17275391 3.81640625 25.30859375 C3.73193597 23.68488723 3.64729128 22.06118978 3.5625 20.4375 C3.52318359 19.63763672 3.48386719 18.83777344 3.44335938 18.01367188 C3.19251844 13.28628494 2.74678186 8.67523099 2 4 C1.01 3.67 0.02 3.34 -1 3 C-0.67 2.01 -0.34 1.02 0 0 Z " fill="#5D9EC1" transform="translate(81,20)"/>
<path d="M0 0 C4.25472632 -0.12156361 8.14497757 0.07248878 12 2 C13.32 2 14.64 2 16 2 C15.67 2.66 15.34 3.32 15 4 C14.34 4 13.68 4 13 4 C12.34 4.66 11.68 5.32 11 6 C10.34 5.67 9.68 5.34 9 5 C9 4.01 9 3.02 9 2 C8.34 2 7.68 2 7 2 C7 3.32 7 4.64 7 6 C6.01 6 5.02 6 4 6 C3.67 6.66 3.34 7.32 3 8 C3 6.35 3 4.7 3 3 C2.34 3 1.68 3 1 3 C0.67 3.66 0.34 4.32 0 5 C0 3.35 0 1.7 0 0 Z " fill="#857C7D" transform="translate(50,13)"/>
<path d="M0 0 C1.98 0.66 3.96 1.32 6 2 C0.0523184 6.75814528 -4.23762746 9.63366306 -12 9 C-9.82604981 6.60045121 -7.81224619 5.27606053 -4.875 3.9375 C-1.79891979 2.65691677 -1.79891979 2.65691677 0 0 Z " fill="#A0C5D6" transform="translate(34,2)"/>
<path d="M0 0 C1.98 0 3.96 0 6 0 C4.68 0.33 3.36 0.66 2 1 C2 1.99 2 2.98 2 4 C2.66 4 3.32 4 4 4 C4.33 4.66 4.66 5.32 5 6 C8.02934491 6.65772428 8.02934491 6.65772428 11 7 C8.77267549 10.34098676 7.75137087 10.90203779 4 12 C3.01 11.67 2.02 11.34 1 11 C1.66 11 2.32 11 3 11 C3 10.01 3 9.02 3 8 C2.01 7.34 1.02 6.68 0 6 C-0.1875 2.875 -0.1875 2.875 0 0 Z " fill="#206427" transform="translate(35,66)"/>
<path d="M0 0 C2.475 0.99 2.475 0.99 5 2 C5 3.32 5 4.64 5 6 C3.02 6 1.04 6 -1 6 C-1 6.99 -1 7.98 -1 9 C-1.99 9 -2.98 9 -4 9 C-4 8.34 -4 7.68 -4 7 C-4.66 6.67 -5.32 6.34 -6 6 C-6 5.01 -6 4.02 -6 3 C-4.68 3 -3.36 3 -2 3 C-1.34 2.01 -0.68 1.02 0 0 Z " fill="#84A58B" transform="translate(64,65)"/>
<path d="M0 0 C3.22446551 0.93044278 4.66303207 1.41103027 6.36328125 4.3828125 C6.67652344 5.28773437 6.98976563 6.19265625 7.3125 7.125 C7.63863281 8.03507812 7.96476562 8.94515625 8.30078125 9.8828125 C8.53152344 10.58148438 8.76226562 11.28015625 9 12 C7.68 12.99 6.36 13.98 5 15 C3.33333333 10 1.66666667 5 0 0 Z " fill="#76A9C4" transform="translate(73,10)"/>
<path d="M0 0 C2.3125 0.4375 2.3125 0.4375 5 2 C6.01854726 4.30243035 6.68920756 6.56904739 7.32421875 9.00390625 C7.80535737 11.19592168 7.80535737 11.19592168 10 12 C6.32281907 12 4.92923811 11.17815142 2 9 C0.1970542 5.65167209 0 3.88518739 0 0 Z " fill="#6CA7C6" transform="translate(22,79)"/>
<path d="M0 0 C1.17949219 0.14888672 1.17949219 0.14888672 2.3828125 0.30078125 C3.18460938 0.40777344 3.98640625 0.51476562 4.8125 0.625 C6.3332455 0.81321108 7.85407232 1.00076689 9.375 1.1875 C11.0765625 1.4040625 11.0765625 1.4040625 12.8125 1.625 C11.8225 3.11 11.8225 3.11 10.8125 4.625 C10.01585938 4.5528125 9.21921875 4.480625 8.3984375 4.40625 C7.33882812 4.3134375 6.27921875 4.220625 5.1875 4.125 C4.14335938 4.0321875 3.09921875 3.939375 2.0234375 3.84375 C-1.05896788 3.63375645 -4.09915229 3.58790273 -7.1875 3.625 C-7.1875 2.635 -7.1875 1.645 -7.1875 0.625 C-4.19802396 -0.37149201 -3.01871859 -0.39537199 0 0 Z " fill="#0E703B" transform="translate(62.1875,77.375)"/>
<path d="M0 0 C0.66 0 1.32 0 2 0 C2.33 2.31 2.66 4.62 3 7 C4.32 6.67 5.64 6.34 7 6 C6.67 7.98 6.34 9.96 6 12 C4.68 12.33 3.36 12.66 2 13 C2.33 12.01 2.66 11.02 3 10 C2.01 10 1.02 10 0 10 C-1.125 2.25 -1.125 2.25 0 0 Z " fill="#5B784E" transform="translate(27,35)"/>
<path d="M0 0 C2.34914492 2.34914492 2.73140357 3.95679446 3.625 7.125 C3.88539062 8.03507812 4.14578125 8.94515625 4.4140625 9.8828125 C4.70410156 10.93082031 4.70410156 10.93082031 5 12 C4.01 12.33 3.02 12.66 2 13 C1.30062798 11.5682384 0.61587282 10.12932968 -0.0625 8.6875 C-0.44535156 7.88699219 -0.82820313 7.08648437 -1.22265625 6.26171875 C-2 4 -2 4 -1 1 C-0.67 0.67 -0.34 0.34 0 0 Z " fill="#83B7CF" transform="translate(19,68)"/>
<path d="M0 0 C0.66 1.65 1.32 3.3 2 5 C-2.455 5.495 -2.455 5.495 -7 6 C-7.33 4.68 -7.66 3.36 -8 2 C-4.91190305 0.23537317 -3.76687864 0 0 0 Z " fill="#0C85C8" transform="translate(43,6)"/>
<path d="M0 0 C-1.485 1.485 -1.485 1.485 -3 3 C-2.01 3.66 -1.02 4.32 0 5 C-0.33 5.66 -0.66 6.32 -1 7 C-3.64 7 -6.28 7 -9 7 C-9 6.01 -9 5.02 -9 4 C-7.68 3.67 -6.36 3.34 -5 3 C-5 2.34 -5 1.68 -5 1 C-6.98 1.33 -8.96 1.66 -11 2 C-7.374967 -1.625033 -4.81746234 -1.01907857 0 0 Z " fill="#6FB9DB" transform="translate(47,83)"/>
<path d="M0 0 C0.33 0 0.66 0 1 0 C1.28875 0.969375 1.5775 1.93875 1.875 2.9375 C2.64214682 6.10664203 2.64214682 6.10664203 5 7 C5 8.98 5 10.96 5 13 C0.125 10.125 0.125 10.125 -1 9 C-1.23728814 2.47457627 -1.23728814 2.47457627 0 0 Z " fill="#EDEEEF" transform="translate(37,51)"/>
<path d="M0 0 C-0.33 0.66 -0.66 1.32 -1 2 C-1.66 2 -2.32 2 -3 2 C-3 2.66 -3 3.32 -3 4 C-6.3 4.66 -9.6 5.32 -13 6 C-12 3 -12 3 -8.75 1.3125 C-5.45873369 0.16055679 -3.4127883 -0.31025348 0 0 Z " fill="#69A2C1" transform="translate(64,92)"/>
<path d="M0 0 C0.66 0 1.32 0 2 0 C2.33 0.66 2.66 1.32 3 2 C4.65 1.67 6.3 1.34 8 1 C6.125 5.875 6.125 5.875 5 7 C3.33382885 7.04063832 1.66611905 7.042721 0 7 C-0.38133299 5.0085944 -0.71325582 3.00720923 -1 1 C-0.67 0.67 -0.34 0.34 0 0 Z " fill="#8B9C42" transform="translate(36,28)"/>
<path d="M0 0 C0.66 1.32 1.32 2.64 2 4 C-1.26545761 5.88391785 -4.28111761 6.49287967 -8 7 C-7.67 5.35 -7.34 3.7 -7 2 C-5.34385343 1.61781233 -3.67542976 1.28604898 -2 1 C-1.67 1.33 -1.34 1.66 -1 2 C-0.67 1.34 -0.34 0.68 0 0 Z " fill="#7B7071" transform="translate(42,13)"/>
<path d="M0 0 C2.64 0.33 5.28 0.66 8 1 C7.34 2.65 6.68 4.3 6 6 C1.545 5.01 1.545 5.01 -3 4 C-2.34 3.67 -1.68 3.34 -1 3 C-0.67 2.01 -0.34 1.02 0 0 Z " fill="#45A4D5" transform="translate(60,82)"/>
<path d="M0 0 C0.99 0.33 1.98 0.66 3 1 C2.01 2.485 2.01 2.485 1 4 C1.66 4 2.32 4 3 4 C3 5.98 3 7.96 3 10 C2.34 9.34 1.68 8.68 1 8 C0.34 9.65 -0.32 11.3 -1 13 C-1.33 13 -1.66 13 -2 13 C-2.19294408 8.17639811 -1.75747614 4.50353262 0 0 Z " fill="#1C7BA6" transform="translate(28,44)"/>
<path d="M0 0 C6.70126536 -0.48736475 11.06561592 0.92291196 17 4 C15.125 5.0625 15.125 5.0625 13 6 C12.34 5.67 11.68 5.34 11 5 C11.33 4.34 11.66 3.68 12 3 C10.88625 3.309375 10.88625 3.309375 9.75 3.625 C6.62463243 4.05118649 5.67770324 3.47735351 3 2 C2.01 2.495 2.01 2.495 1 3 C0.67 2.01 0.34 1.02 0 0 Z " fill="#E8E7E9" transform="translate(54,12)"/>
<path d="M0 0 C-2 3 -2 3 -4.1640625 3.51171875 C-4.97617187 3.56972656 -5.78828125 3.62773438 -6.625 3.6875 C-7.85089844 3.78611328 -7.85089844 3.78611328 -9.1015625 3.88671875 C-9.72804687 3.92410156 -10.35453125 3.96148437 -11 4 C-11.33 3.34 -11.66 2.68 -12 2 C-4.71428571 -1.57142857 -4.71428571 -1.57142857 0 0 Z " fill="#087C2F" transform="translate(46,77)"/>
<path d="M0 0 C0.99 0.33 1.98 0.66 3 1 C3 3.31 3 5.62 3 8 C-2.75 6.375 -2.75 6.375 -5 3 C-4.01 2.67 -3.02 2.34 -2 2 C-1.34 2.33 -0.68 2.66 0 3 C0 2.01 0 1.02 0 0 Z " fill="#718726" transform="translate(32,63)"/>
<path d="M0 0 C0.25 2.3125 0.25 2.3125 0 5 C-2.04424538 6.97610386 -3.1176825 8 -6 8 C-6.25 5.6875 -6.25 5.6875 -6 3 C-3.95575462 1.02389614 -2.8823175 0 0 0 Z " fill="#F1F1F2" transform="translate(63,56)"/>
<path d="M0 0 C1.32 0 2.64 0 4 0 C5.4783226 2.95664519 5.06032783 5.74229737 5 9 C3.68 8.67 2.36 8.34 1 8 C0.67 5.36 0.34 2.72 0 0 Z " fill="#C7B81F" transform="translate(41,56)"/>
<path d="M0 0 C0.99 0.33 1.98 0.66 3 1 C3 1.66 3 2.32 3 3 C4.98 2.67 6.96 2.34 9 2 C9 2.66 9 3.32 9 4 C8.01 4.495 8.01 4.495 7 5 C7.33 5.66 7.66 6.32 8 7 C6.68 7 5.36 7 4 7 C4 6.34 4 5.68 4 5 C3.01 5 2.02 5 1 5 C1 4.34 1 3.68 1 3 C0.01 2.67 -0.98 2.34 -2 2 C-1.34 1.34 -0.68 0.68 0 0 Z " fill="#349BD2" transform="translate(33,82)"/>
<path d="M0 0 C2.72869407 0.03287583 5.2966618 0.56397771 8 1 C7.67 4.63 7.34 8.26 7 12 C6.67 12 6.34 12 6 12 C5.67 9.36 5.34 6.72 5 4 C4.01 4.33 3.02 4.66 2 5 C2 4.34 2 3.68 2 3 C0.68 2.67 -0.64 2.34 -2 2 C-1.34 1.34 -0.68 0.68 0 0 Z " fill="#2382B2" transform="translate(35,34)"/>
<path d="M0 0 C0.33 0.99 0.66 1.98 1 3 C0.67 3.66 0.34 4.32 0 5 C0.66 5.33 1.32 5.66 2 6 C1.34 7.98 0.68 9.96 0 12 C-1.32 12 -2.64 12 -4 12 C-4.33 11.34 -4.66 10.68 -5 10 C-4.00390625 7.6171875 -4.00390625 7.6171875 -2.5625 4.875 C-1.85287109 3.50988281 -1.85287109 3.50988281 -1.12890625 2.1171875 C-0.75636719 1.41851562 -0.38382812 0.71984375 0 0 Z " fill="#98BDCF" transform="translate(77,74)"/>
<path d="M0 0 C2.475 0.495 2.475 0.495 5 1 C5 2.65 5 4.3 5 6 C4.34 6 3.68 6 3 6 C3 6.66 3 7.32 3 8 C2.34 8 1.68 8 1 8 C-0.35439668 5.29120665 -0.06501451 2.99066732 0 0 Z " fill="#0C89CF" transform="translate(57,34)"/>
<path d="M0 0 C1.875 0.25 1.875 0.25 4 1 C5.25 3.0625 5.25 3.0625 6 5 C4.02 5.99 4.02 5.99 2 7 C2 7.99 2 8.98 2 10 C0.35 9.67 -1.3 9.34 -3 9 C-3 8.34 -3 7.68 -3 7 C-2.01 7 -1.02 7 0 7 C0 6.01 0 5.02 0 4 C0.66 4 1.32 4 2 4 C2 3.01 2 2.02 2 1 C1.34 0.67 0.68 0.34 0 0 Z " fill="#1B5842" transform="translate(60,25)"/>
<path d="M0 0 C1.32 0.33 2.64 0.66 4 1 C4 1.66 4 2.32 4 3 C3.34 3 2.68 3 2 3 C2.33 4.98 2.66 6.96 3 9 C-0.465 7.02 -0.465 7.02 -4 5 C-3.01 4.67 -2.02 4.34 -1 4 C-0.26676204 1.98491642 -0.26676204 1.98491642 0 0 Z " fill="#EDEEF0" transform="translate(74,22)"/>
<path d="M0 0 C0.598125 0.185625 1.19625 0.37125 1.8125 0.5625 C4.16408762 1.22093687 4.16408762 1.22093687 7 0 C9.36522558 0.92203709 11.70401807 1.91698965 14 3 C11.20315672 4.90185343 9.89614391 4.99271185 6.4375 4.75 C3 4 3 4 0 2 C0 1.34 0 0.68 0 0 Z " fill="#9EC4D7" transform="translate(26,89)"/>
<path d="M0 0 C1.88391785 3.26545761 2.49287967 6.28111761 3 10 C2.01 10.33 1.02 10.66 0 11 C0 9.35 0 7.7 0 6 C-0.66 6 -1.32 6 -2 6 C-1.125 1.125 -1.125 1.125 0 0 Z " fill="#9CAE3D" transform="translate(29,51)"/>
<path d="M0 0 C-2.8221083 1.91903365 -4.12901932 1.99110212 -7.625 1.75 C-11 1 -11 1 -13 -1 C-8.15275166 -2.43622173 -4.43079196 -2.6256545 0 0 Z " fill="#80B9D7" transform="translate(56,98)"/>
<path d="M0 0 C0.33 1.32 0.66 2.64 1 4 C1.99 4 2.98 4 4 4 C4 4.66 4 5.32 4 6 C2.02 6 0.04 6 -2 6 C-1.67 7.65 -1.34 9.3 -1 11 C-1.66 10.67 -2.32 10.34 -3 10 C-3.36923077 3.47692308 -3.36923077 3.47692308 -1.5 1.0625 C-1.005 0.711875 -0.51 0.36125 0 0 Z " fill="#ADA47A" transform="translate(41,46)"/>
<path d="M0 0 C0.99 0 1.98 0 3 0 C3.12375 0.639375 3.2475 1.27875 3.375 1.9375 C3.684375 2.9584375 3.684375 2.9584375 4 4 C4.66 4.33 5.32 4.66 6 5 C4.02 6.32 2.04 7.64 0 9 C0.33 7.02 0.66 5.04 1 3 C0.34 3 -0.32 3 -1 3 C-0.67 2.01 -0.34 1.02 0 0 Z " fill="#F2F2F3" transform="translate(23,22)"/>
<path d="M0 0 C4.21912747 0.4794463 6.79663178 1.16625119 10 4 C9.67 4.66 9.34 5.32 9 6 C8.34 6 7.68 6 7 6 C6.67 6.99 6.34 7.98 6 9 C4 5.25 4 5.25 4 3 C2.68 2.34 1.36 1.68 0 1 C0 0.67 0 0.34 0 0 Z " fill="#1A84C0" transform="translate(59,20)"/>
<path d="M0 0 C1.98 0 3.96 0 6 0 C5.34 1.98 4.68 3.96 4 6 C3.38125 5.814375 2.7625 5.62875 2.125 5.4375 C-0.04160178 4.76313824 -0.04160178 4.76313824 -2 6 C-1.34 4.02 -0.68 2.04 0 0 Z " fill="#4D8778" transform="translate(31,37)"/>
<path d="M0 0 C0.66 0 1.32 0 2 0 C2.66 1.98 3.32 3.96 4 6 C1.36 6 -1.28 6 -4 6 C-3.34 4.68 -2.68 3.36 -2 2 C-1.34 2.33 -0.68 2.66 0 3 C0 2.01 0 1.02 0 0 Z " fill="#206437" transform="translate(68,32)"/>
<path d="M0 0 C0.99 0.33 1.98 0.66 3 1 C3 2.65 3 4.3 3 6 C2.34 6 1.68 6 1 6 C0.67 7.32 0.34 8.64 0 10 C-0.99 9.67 -1.98 9.34 -3 9 C-3 8.34 -3 7.68 -3 7 C-2.01 7 -1.02 7 0 7 C-0.185625 6.030625 -0.37125 5.06125 -0.5625 4.0625 C-0.706875 3.051875 -0.85125 2.04125 -1 1 C-0.67 0.67 -0.34 0.34 0 0 Z " fill="#969091" transform="translate(30,17)"/>
<path d="M0 0 C6.93 0 13.86 0 21 0 C21 0.33 21 0.66 21 1 C20.02417969 1.06058594 19.04835938 1.12117187 18.04296875 1.18359375 C16.13451172 1.30927734 16.13451172 1.30927734 14.1875 1.4375 C12.92292969 1.51871094 11.65835938 1.59992187 10.35546875 1.68359375 C7.00818107 1.87184547 7.00818107 1.87184547 4 3 C2.68 2.01 1.36 1.02 0 0 Z " fill="#518FB2" transform="translate(36,2)"/>
<path d="M0 0 C1.32 0 2.64 0 4 0 C4.33 0.99 4.66 1.98 5 3 C5.66 3.66 6.32 4.32 7 5 C4.36 5 1.72 5 -1 5 C-0.67 3.35 -0.34 1.7 0 0 Z " fill="#0C812B" transform="translate(24,71)"/>
<path d="M0 0 C2.3125 -0.25 2.3125 -0.25 5 0 C5.99 1.32 6.98 2.64 8 4 C4.7 4 1.4 4 -2 4 C-1.34 3.67 -0.68 3.34 0 3 C0 2.01 0 1.02 0 0 Z " fill="#B8A822" transform="translate(47,66)"/>
<path d="M0 0 C0.66 0.99 1.32 1.98 2 3 C1.125 5.6875 1.125 5.6875 0 8 C-0.99 7.67 -1.98 7.34 -3 7 C-3.1875 4.625 -3.1875 4.625 -3 2 C-2.01 1.34 -1.02 0.68 0 0 Z " fill="#0688D1" transform="translate(56,24)"/>
<path d="M0 0 C0.99 0.33 1.98 0.66 3 1 C2.67 2.32 2.34 3.64 2 5 C-0.3431213 4.74438677 -2.67843403 4.40729228 -5 4 C-5.33 3.34 -5.66 2.68 -6 2 C-4.02 1.67 -2.04 1.34 0 1 C0 0.67 0 0.34 0 0 Z " fill="#369AD0" transform="translate(45,88)"/>
<path d="M0 0 C0.66 0 1.32 0 2 0 C3.71767682 3.98188718 5.41037341 7.96479403 7 12 C6.01 12.495 6.01 12.495 5 13 C4.731875 12.2575 4.46375 11.515 4.1875 10.75 C3.13547578 7.99038265 3.13547578 7.99038265 1.375 5.9375 C0 4 0 4 0 0 Z " fill="#DDDEDF" transform="translate(56,42)"/>
<path d="M0 0 C0.33 0.66 0.66 1.32 1 2 C1.66 2.33 2.32 2.66 3 3 C2.6875 4.9375 2.6875 4.9375 2 7 C1.01 7.33 0.02 7.66 -1 8 C-1.66 8.66 -2.32 9.32 -3 10 C-2.49287967 6.28111761 -1.88391785 3.26545761 0 0 Z " fill="#3F8AB6" transform="translate(24,15)"/>
<path d="M0 0 C1.98 0.66 3.96 1.32 6 2 C3.06171403 4.50298434 0.82097239 5.46930939 -3 6 C-3 3 -3 3 -1.5 1.3125 C-0.7575 0.6628125 -0.7575 0.6628125 0 0 Z " fill="#84B3CA" transform="translate(34,2)"/>
<path d="M0 0 C0.66 0 1.32 0 2 0 C1.34 2.31 0.68 4.62 0 7 C-1.65 7 -3.3 7 -5 7 C-5.33 6.34 -5.66 5.68 -6 5 C-5.195625 4.54625 -4.39125 4.0925 -3.5625 3.625 C-0.91143428 2.25274335 -0.91143428 2.25274335 0 0 Z " fill="#1786C3" transform="translate(63,59)"/>
<path d="M0 0 C3.26460973 1.80412643 4.88929795 2.83394693 7 6 C3 6 3 6 1.25 4.6875 C0 3 0 3 0 0 Z " fill="#D5CE1B" transform="translate(23,64)"/>
<path d="M0 0 C0 0.66 0 1.32 0 2 C-0.66 2 -1.32 2 -2 2 C-1.67 4.31 -1.34 6.62 -1 9 C-1.99 9 -2.98 9 -4 9 C-4 6.36 -4 3.72 -4 1 C-2 0 -2 0 0 0 Z " fill="#A79C47" transform="translate(58,40)"/>
<path d="M0 0 C2.1875 0.3125 2.1875 0.3125 4 1 C3.34 2.32 2.68 3.64 2 5 C-0.475 4.01 -0.475 4.01 -3 3 C-1.75 1.4375 -1.75 1.4375 0 0 Z " fill="#0786CA" transform="translate(32,26)"/>
<path d="M0 0 C-0.53625 0.2475 -1.0725 0.495 -1.625 0.75 C-4.56363927 2.29665225 -7.24770663 4.1451936 -10 6 C-10.99 6.495 -10.99 6.495 -12 7 C-12.66 6.34 -13.32 5.68 -14 5 C-12.61217515 4.1533966 -11.21430603 3.32324661 -9.8125 2.5 C-9.03519531 2.0359375 -8.25789063 1.571875 -7.45703125 1.09375 C-4.75896614 -0.10729647 -2.9193018 -0.20741043 0 0 Z " fill="#1A7EB5" transform="translate(43,5)"/>
<path d="M0 0 C1.98 0 3.96 0 6 0 C4.35 1.98 2.7 3.96 1 6 C0.01 5.67 -0.98 5.34 -2 5 C-1.34 3.35 -0.68 1.7 0 0 Z " fill="#1B80B8" transform="translate(56,5)"/>
<path d="M0 0 C0 0.99 0 1.98 0 3 C-0.66 3 -1.32 3 -2 3 C-2 3.66 -2 4.32 -2 5 C-2.66 5 -3.32 5 -4 5 C-4 4.34 -4 3.68 -4 3 C-4.99 2.67 -5.98 2.34 -7 2 C-4 0 -4 0 0 0 Z " fill="#0C712B" transform="translate(73,42)"/>
<path d="M0 0 C0.33 0 0.66 0 1 0 C1 1.65 1 3.3 1 5 C-1.31 5 -3.62 5 -6 5 C-6 4.01 -6 3.02 -6 2 C-4.02 2 -2.04 2 0 2 C0 1.34 0 0.68 0 0 Z " fill="#EDECEA" transform="translate(52,17)"/>
<path d="M0 0 C1.32 0 2.64 0 4 0 C3.67 1.65 3.34 3.3 3 5 C2.01 5 1.02 5 0 5 C-0.5625 3.0625 -0.5625 3.0625 -1 1 C-0.67 0.67 -0.34 0.34 0 0 Z " fill="#8B8081" transform="translate(45,13)"/>
<path d="M0 0 C2.31 0 4.62 0 7 0 C7 0.99 7 1.98 7 3 C5.68 3.33 4.36 3.66 3 4 C2.01 2.68 1.02 1.36 0 0 Z " fill="#51A8D5" transform="translate(49,89)"/>
<path d="M0 0 C1.65 0 3.3 0 5 0 C5 1.32 5 2.64 5 4 C3.35 4 1.7 4 0 4 C0 2.68 0 1.36 0 0 Z " fill="#08812D" transform="translate(55,72)"/>
<path d="M0 0 C0.99 0.33 1.98 0.66 3 1 C2.67 2.65 2.34 4.3 2 6 C0.68 6.33 -0.64 6.66 -2 7 C-1.34 4.69 -0.68 2.38 0 0 Z " fill="#96AA41" transform="translate(31,41)"/>
<path d="M0 0 C0.99 0.66 1.98 1.32 3 2 C3 2.99 3 3.98 3 5 C1.35 5 -0.3 5 -2 5 C-1.125 1.125 -1.125 1.125 0 0 Z " fill="#F0F0F1" transform="translate(49,25)"/>
<path d="M0 0 C-3.08809695 1.76462683 -4.23312136 2 -8 2 C-8.66 1.34 -9.32 0.68 -10 0 C-6.30458414 -0.95024979 -3.69541586 -0.95024979 0 0 Z " fill="#1187C7" transform="translate(64,81)"/>
<path d="M0 0 C1.32 0 2.64 0 4 0 C4 1.32 4 2.64 4 4 C1.03 3.505 1.03 3.505 -2 3 C-1.34 2.01 -0.68 1.02 0 0 Z " fill="#36822C" transform="translate(46,73)"/>
<path d="M0 0 C2.31 0 4.62 0 7 0 C7 0.99 7 1.98 7 3 C4.0625 2.625 4.0625 2.625 1 2 C0.67 1.34 0.34 0.68 0 0 Z " fill="#E1D914" transform="translate(28,73)"/>
<path d="M0 0 C0 2.83967231 -0.40267181 5.23735711 -1 8 C-1.28875 7.38125 -1.5775 6.7625 -1.875 6.125 C-2.93720042 3.86674235 -2.93720042 3.86674235 -5 2 C-3.35 1.34 -1.7 0.68 0 0 Z " fill="#357445" transform="translate(71,63)"/>
<path d="M0 0 C1.98 0 3.96 0 6 0 C6 0.99 6 1.98 6 3 C4.02 3 2.04 3 0 3 C0 2.01 0 1.02 0 0 Z " fill="#F8E60E" transform="translate(54,52)"/>
<path d="M0 0 C1.98 0 3.96 0 6 0 C6 0.99 6 1.98 6 3 C4.02 3 2.04 3 0 3 C0 2.01 0 1.02 0 0 Z " fill="#F7E510" transform="translate(39,52)"/>
<path d="M0 0 C-0.33 1.32 -0.66 2.64 -1 4 C-1.99 4 -2.98 4 -4 4 C-4 3.01 -4 2.02 -4 1 C-4.66 0.67 -5.32 0.34 -6 0 C-3 -1 -3 -1 0 0 Z " fill="#598824" transform="translate(56,77)"/>
<path d="M0 0 C1.32 0.33 2.64 0.66 4 1 C4.33 2.65 4.66 4.3 5 6 C4.01 6 3.02 6 2 6 C2 5.34 2 4.68 2 4 C1.34 3.67 0.68 3.34 0 3 C0 2.01 0 1.02 0 0 Z " fill="#D7D6D5" transform="translate(58,68)"/>
<path d="M0 0 C0.33 0 0.66 0 1 0 C1.25 7.625 1.25 7.625 -1 11 C-1.33 8.69 -1.66 6.38 -2 4 C-1.34 4 -0.68 4 0 4 C0 2.68 0 1.36 0 0 Z " fill="#4189B2" transform="translate(84,50)"/>
<path d="M0 0 C2.625 0.9375 2.625 0.9375 5 2 C4.67 2.66 4.34 3.32 4 4 C0 4 0 4 -2 3 C-2 2.34 -2 1.68 -2 1 C-1.34 0.67 -0.68 0.34 0 0 Z " fill="#DAD8D8" transform="translate(72,53)"/>
<path d="M0 0 C1.67542976 0.28604898 3.34385343 0.61781233 5 1 C4.67 1.66 4.34 2.32 4 3 C1.4375 3.625 1.4375 3.625 -1 4 C-1 1 -1 1 0 0 Z " fill="#DDDADA" transform="translate(71,46)"/>
<path d="M0 0 C1.77706209 2.66559313 2.87548273 5.0280615 4 8 C2.68 7.67 1.36 7.34 0 7 C-0.93423645 3.98968256 -1.04449911 3.13349732 0 0 Z " fill="#2C80B1" transform="translate(74,14)"/>
<path d="" fill="#FFF8EB" transform="translate(0,0)"/>
</svg>
